<svg width="232" height="44" viewBox="0 0 232 44" fill="none" xmlns="http://www.w3.org/2000/svg">
<g clip-path="url(#clip0_1166_371)">
<g clip-path="url(#clip1_1166_371)">
<path d="M133.089 15.1609C131.866 13.9379 130.399 13.571 128.809 13.571C126.73 13.571 125.629 14.1825 125.629 15.2833C125.629 16.384 126.607 16.9955 128.809 17.2401C132.111 17.4847 136.147 18.2185 136.147 22.7438C136.147 25.8013 133.701 28.3696 128.687 28.3696C125.996 28.3696 123.183 27.8804 120.737 25.312L122.816 22.2544C124.039 23.5998 126.852 24.7005 128.809 24.7005C130.399 24.7005 131.989 23.8443 131.989 22.6214C131.989 21.3983 131.01 20.9091 128.564 20.7869C125.262 20.5422 121.471 19.3192 121.471 15.4056C121.471 11.3696 125.629 10.0242 128.687 10.0242C131.377 10.0242 133.456 10.5135 135.413 12.348L133.089 15.1609Z" fill="black"/>
<path d="M153.759 25.5572C151.802 27.5141 149.6 28.2479 147.154 28.2479C142.14 28.2479 137.982 25.1903 137.982 19.0751C137.982 12.96 142.14 9.90247 147.154 9.90247C149.6 9.90247 151.557 10.6363 153.392 12.4708L150.701 15.2837C149.723 14.3054 148.378 13.9384 147.276 13.9384C144.341 13.9384 142.263 16.0176 142.263 19.0751C142.263 22.3773 144.464 24.0895 147.154 24.0895C148.5 24.0895 149.845 23.7226 150.946 22.6219L153.759 25.5572Z" fill="black"/>
<path d="M159.507 19.1972C159.507 21.8878 161.097 24.2116 164.154 24.2116C167.211 24.2116 168.801 21.7656 168.801 19.1972C168.801 16.6289 166.966 14.0605 164.154 14.0605C161.097 14.0605 159.507 16.6289 159.507 19.1972ZM173.082 19.1972C173.082 24.2116 169.657 28.1252 164.154 28.1252C158.651 28.1252 155.226 24.0892 155.226 19.1972C155.226 14.3051 158.651 10.2691 164.154 10.2691C169.657 10.2691 173.082 14.1827 173.082 19.1972Z" fill="black"/>
<path d="M61.6648 19.1972C61.6648 21.8878 63.2547 24.2116 66.3123 24.2116C69.3699 24.2116 70.9598 21.7656 70.9598 19.1972C70.9598 16.6289 69.1253 14.0605 66.3123 14.0605C63.2547 14.0605 61.6648 16.6289 61.6648 19.1972ZM75.3627 19.1972C75.3627 24.2116 71.9381 28.1252 66.4346 28.1252C60.931 28.1252 57.5065 24.0892 57.5065 19.1972C57.5065 14.3051 60.931 10.2691 66.4346 10.2691C71.9381 10.2691 75.3627 14.1827 75.3627 19.1972Z" fill="black"/>
<path d="M88.082 24.0892C85.1466 24.0892 83.1897 21.8878 83.1897 19.1971C83.1897 16.5064 85.0244 14.3051 88.082 14.3051C91.1394 14.3051 92.9741 16.5064 92.9741 19.1971C92.9741 21.8878 91.0172 24.0892 88.082 24.0892ZM88.4488 10.1467C86.4919 10.1467 84.1682 11.0028 82.8229 12.9597V10.5136L78.5422 11.492V34.9741H82.8229V25.8015C84.0459 27.7584 86.7365 28.2475 88.5711 28.2475C94.0748 28.2475 97.2546 24.2115 97.2546 19.1971C97.2546 14.0604 93.7078 10.1467 88.4488 10.1467Z" fill="black"/>
<path d="M108.873 24.3338C106.06 24.3338 103.737 22.377 103.737 19.0748C103.737 15.7726 106.06 13.8157 108.873 13.8157C115.6 13.9381 115.6 24.3338 108.873 24.3338ZM114.01 10.5136V12.9597C113.032 11.2475 110.83 10.1467 108.506 10.1467C103.492 10.1467 99.5784 13.2043 99.5784 19.1971C99.5784 25.19 103.37 28.3698 108.506 28.3698C110.463 28.3698 113.154 27.3914 114.132 25.3122L114.377 27.8806H118.413V11.492L114.01 10.5136Z" fill="black"/>
<path d="M185.679 24.0892C182.744 24.0892 180.787 21.8878 180.787 19.1971C180.787 16.5064 182.622 14.3051 185.679 14.3051C188.738 14.3051 190.571 16.5064 190.571 19.1971C190.571 21.8878 188.493 24.0892 185.679 24.0892ZM185.924 10.1467C183.968 10.1467 181.643 11.0028 180.298 12.9597V10.5136L176.017 11.492V34.9741H180.298V25.8015C181.522 27.7584 184.212 28.2475 186.047 28.2475C191.55 28.2475 194.73 24.2115 194.73 19.1971C194.852 14.0604 191.305 10.1467 185.924 10.1467Z" fill="black"/>
<path d="M206.348 13.2041C208.183 13.2041 209.773 14.1825 210.507 15.6501L200.967 18.7077C201.09 15.6501 203.413 13.2041 206.348 13.2041ZM206.716 24.9452C204.392 24.9452 202.68 23.8445 201.823 22.1322L201.701 22.0098L214.91 17.7293C214.299 12.9595 210.874 10.0242 206.471 10.0242C201.212 10.0242 197.176 14.0602 197.176 19.197C197.176 24.3337 201.09 28.2474 206.593 28.2474C209.528 28.2474 212.219 27.1467 214.42 25.1898L212.83 22.1322C210.874 24.0891 208.794 24.9452 206.716 24.9452Z" fill="black"/>
<path d="M2.71446 41.285H19.8368V24.1627H2.71446V41.285ZM21.1821 43.8534H1.36913C0.635317 43.8534 0.0238037 43.2418 0.0238037 42.5081V22.695C0.0238037 21.9612 0.635317 21.3497 1.36913 21.3497H21.1821C21.9159 21.3497 22.5275 21.9612 22.5275 22.695V42.5081C22.5275 43.3642 21.9159 43.8534 21.1821 43.8534Z" fill="black"/>
<path d="M12.7436 31.2565H39.8948V4.10529H12.7436V31.2565ZM41.2401 33.9471H11.3983C10.6645 33.9471 10.053 33.3356 10.053 32.6018V2.75991C10.053 2.0261 10.6645 1.41461 11.3983 1.41461H41.2401C41.974 1.41461 42.5855 2.0261 42.5855 2.75991V32.6018C42.4632 33.3356 41.974 33.9471 41.2401 33.9471Z" fill="black"/>
<path d="M1.36941 24.1627C1.12481 24.1627 1.00251 24.1627 0.757901 24.0403C0.146389 23.6735 -0.220519 22.9396 0.146389 22.328L10.1752 2.27048C10.5421 1.65896 11.2759 1.29205 11.8874 1.65896C12.499 2.02587 12.8659 2.75965 12.499 3.37115L2.47013 23.4288C2.34784 23.9181 1.85863 24.1627 1.36941 24.1627Z" fill="black"/>
<path d="M21.1823 24.1629C20.8153 24.1629 20.4485 24.0406 20.2039 23.796C19.7146 23.3068 19.7146 22.4506 20.2039 21.9615L40.2614 1.78152C40.7508 1.29231 41.6068 1.29231 42.0961 1.78152C42.5853 2.27073 42.5853 3.12684 42.0961 3.61606L22.1608 23.796C21.7938 24.0406 21.5492 24.1629 21.1823 24.1629Z" fill="black"/>
<path d="M21.1826 43.8538C20.6934 43.8538 20.2042 43.6091 19.9595 43.1199C19.5926 42.5083 19.9595 41.6523 20.571 41.4077L40.6287 31.3788C41.2402 31.0119 42.0964 31.3788 42.341 31.9904C42.7078 32.6019 42.341 33.4579 41.7294 33.7025L21.6717 43.7314C21.5495 43.8536 21.4271 43.8538 21.1826 43.8538Z" fill="black"/>
<path d="M226.667 0L228.111 4.05073L229.571 0H231.178V5.65854H230.141V1.09268L228.572 5.65854H227.667L226.09 1.09268V5.65854H225.051V0H226.667ZM219.268 0.94439V0H224.092V0.94439H222.242V5.65854H221.119V0.94439H219.268Z" fill="black"/>
</g>
</g>
<defs>
<clipPath id="clip0_1166_371">
<rect width="232" height="43.8537" fill="white"/>
</clipPath>
<clipPath id="clip1_1166_371">
<rect width="232" height="43.8537" fill="white"/>
</clipPath>
</defs>
</svg>
