<svg width="164" height="31" viewBox="0 0 164 31" fill="none" xmlns="http://www.w3.org/2000/svg">
<path d="M94.0804 10.7172C93.2158 9.85269 92.1784 9.59333 91.0544 9.59333C89.5847 9.59333 88.8066 10.0256 88.8066 10.8037C88.8066 11.5818 89.4982 12.0141 91.0544 12.187C93.3887 12.3599 96.2418 12.8786 96.2418 16.0775C96.2418 18.2389 94.5126 20.0544 90.968 20.0544C89.066 20.0544 87.0775 19.7086 85.3484 17.893L86.8181 15.7316C87.6827 16.6826 89.6712 17.4607 91.0544 17.4607C92.1784 17.4607 93.3023 16.8555 93.3023 15.991C93.3023 15.1264 92.6106 14.7806 90.8815 14.6942C88.5472 14.5212 85.8671 13.6567 85.8671 10.8902C85.8671 8.03713 88.8066 7.08611 90.968 7.08611C92.87 7.08611 94.3397 7.43195 95.723 8.72878L94.0804 10.7172Z" fill="white"/>
<path d="M108.692 18.0663C107.308 19.4496 105.752 19.9683 104.023 19.9683C100.478 19.9683 97.5388 17.8069 97.5388 13.4841C97.5388 9.16138 100.478 7 104.023 7C105.752 7 107.135 7.51871 108.432 8.81554L106.53 10.804C105.839 10.1124 104.888 9.85301 104.109 9.85301C102.034 9.85301 100.565 11.3228 100.565 13.4841C100.565 15.8184 102.121 17.0288 104.023 17.0288C104.974 17.0288 105.925 16.7694 106.703 15.9913L108.692 18.0663Z" fill="white"/>
<path d="M112.755 13.5704C112.755 15.4724 113.879 17.1151 116.04 17.1151C118.201 17.1151 119.325 15.386 119.325 13.5704C119.325 11.7549 118.028 9.93928 116.04 9.93928C113.879 9.93928 112.755 11.7549 112.755 13.5704ZM122.351 13.5704C122.351 17.1151 119.93 19.8816 116.04 19.8816C112.15 19.8816 109.729 17.0286 109.729 13.5704C109.729 10.1122 112.15 7.25919 116.04 7.25919C119.93 7.25919 122.351 10.0257 122.351 13.5704Z" fill="white"/>
<path d="M43.5906 13.5704C43.5906 15.4724 44.7145 17.1151 46.8759 17.1151C49.0373 17.1151 50.1612 15.386 50.1612 13.5704C50.1612 11.7549 48.8644 9.93928 46.8759 9.93928C44.7145 9.93928 43.5906 11.7549 43.5906 13.5704ZM53.2736 13.5704C53.2736 17.1151 50.8528 19.8816 46.9624 19.8816C43.0719 19.8816 40.6511 17.0286 40.6511 13.5704C40.6511 10.1122 43.0719 7.25919 46.9624 7.25919C50.8528 7.25919 53.2736 10.0257 53.2736 13.5704Z" fill="white"/>
<path d="M62.2648 17.0286C60.1898 17.0286 58.8065 15.4724 58.8065 13.5704C58.8065 11.6683 60.1034 10.1122 62.2648 10.1122C64.4261 10.1122 65.723 11.6683 65.723 13.5704C65.723 15.4724 64.3397 17.0286 62.2648 17.0286ZM62.5241 7.17265C61.1408 7.17265 59.4982 7.77788 58.5472 9.16117V7.43206L55.5212 8.12369V24.7231H58.5472V18.239C59.4117 19.6223 61.3137 19.9681 62.6106 19.9681C66.5011 19.9681 68.7489 17.115 68.7489 13.5704C68.7489 9.93924 66.2417 7.17265 62.5241 7.17265Z" fill="white"/>
<path d="M76.9622 17.2015C74.9737 17.2015 73.3311 15.8182 73.3311 13.4839C73.3311 11.1496 74.9737 9.76631 76.9622 9.76631C81.7173 9.85277 81.7173 17.2015 76.9622 17.2015ZM80.5933 7.43206V9.16117C79.9017 7.95079 78.3455 7.17265 76.7028 7.17265C73.1582 7.17265 70.3916 9.33406 70.3916 13.5704C70.3916 17.8067 73.0717 20.0545 76.7028 20.0545C78.0861 20.0545 79.9881 19.3629 80.6798 17.8931L80.8527 19.7087H83.7057V8.12369L80.5933 7.43206Z" fill="white"/>
<path d="M131.256 17.0286C129.181 17.0286 127.798 15.4724 127.798 13.5704C127.798 11.6683 129.095 10.1122 131.256 10.1122C133.418 10.1122 134.714 11.6683 134.714 13.5704C134.714 15.4724 133.245 17.0286 131.256 17.0286ZM131.429 7.17265C130.046 7.17265 128.403 7.77788 127.452 9.16117V7.43206L124.426 8.12369V24.7231H127.452V18.239C128.317 19.6223 130.219 19.9681 131.516 19.9681C135.406 19.9681 137.654 17.115 137.654 13.5704C137.74 9.93924 135.233 7.17265 131.429 7.17265Z" fill="white"/>
<path d="M145.867 9.33392C147.164 9.33392 148.288 10.0256 148.807 11.063L142.063 13.2244C142.15 11.063 143.792 9.33392 145.867 9.33392ZM146.127 17.6337C144.484 17.6337 143.274 16.8556 142.668 15.6452L142.582 15.5587L151.919 12.5328C151.487 9.16102 149.066 7.08611 145.954 7.08611C142.236 7.08611 139.383 9.93913 139.383 13.5703C139.383 17.2014 142.15 19.968 146.04 19.968C148.115 19.968 150.017 19.1899 151.573 17.8066L150.449 15.6452C149.066 17.0285 147.596 17.6337 146.127 17.6337Z" fill="white"/>
<path d="M1.91886 29.1842H14.0226V17.0805H1.91886V29.1842ZM14.9736 30.9998H0.967854C0.449122 30.9998 0.0168457 30.5675 0.0168457 30.0488V16.043C0.0168457 15.5243 0.449122 15.092 0.967854 15.092H14.9736C15.4923 15.092 15.9246 15.5243 15.9246 16.043V30.0488C15.9246 30.654 15.4923 30.9998 14.9736 30.9998Z" fill="white"/>
<path d="M9.00846 22.0951H28.2015V2.90203H9.00846V22.0951ZM29.1525 23.9971H8.05745C7.53872 23.9971 7.10645 23.5648 7.10645 23.0461V1.95099C7.10645 1.43226 7.53872 1 8.05745 1H29.1525C29.6713 1 30.1036 1.43226 30.1036 1.95099V23.0461C30.0171 23.5648 29.6713 23.9971 29.1525 23.9971Z" fill="white"/>
<path d="M0.968035 17.0805C0.795124 17.0805 0.708669 17.0805 0.535758 16.994C0.103482 16.7347 -0.155884 16.2159 0.103482 15.7836L7.19281 1.60499C7.45218 1.17271 7.97091 0.913345 8.40319 1.17271C8.83547 1.43208 9.09483 1.95078 8.83547 2.38305L1.74613 16.5617C1.65968 16.9076 1.31386 17.0805 0.968035 17.0805Z" fill="white"/>
<path d="M14.9737 17.0807C14.7143 17.0807 14.455 16.9942 14.2821 16.8213C13.9362 16.4755 13.9362 15.8703 14.2821 15.5245L28.4607 1.25937C28.8066 0.913545 29.4117 0.913545 29.7576 1.25937C30.1034 1.60519 30.1034 2.21037 29.7576 2.5562L15.6654 16.8213C15.406 16.9942 15.2331 17.0807 14.9737 17.0807Z" fill="white"/>
<path d="M14.9739 31.0001C14.6281 31.0001 14.2823 30.8271 14.1093 30.4813C13.85 30.049 14.1093 29.4439 14.5416 29.271L28.7203 22.1816C29.1526 21.9222 29.7578 22.1816 29.9307 22.6139C30.19 23.0462 29.9307 23.6513 29.4984 23.8242L15.3197 30.9136C15.2333 31 15.1468 31.0001 14.9739 31.0001Z" fill="white"/>
<path d="M160.23 0L161.251 2.86345L162.283 0H163.419V4H162.686V0.772414L161.577 4H160.937L159.822 0.772414V4H159.088V0H160.23ZM155 0.667586V0H158.41V0.667586H157.102V4H156.308V0.667586H155Z" fill="white"/>
</svg>
